<?xml version="1.0" encoding="UTF-8"?>
<svg id="Layer_1" data-name="Layer 1" xmlns="http://www.w3.org/2000/svg" viewBox="0 0 24 24">
  <defs>
    <style>
      .cls-1 {
        fill: #ff0;
      }

      .cls-1, .cls-2 {
        stroke-width: 0px;
      }

      .cls-2 {
        fill: #36352f;
      }
    </style>
  </defs>
  <polygon class="cls-2" points="12 5.85 9.05 5.85 2.86 12.3 3.26 15.39 9.69 21.26 10.73 21.26 13.17 19.84 17.71 14.88 18.39 13.01 17.71 8.82 17.42 6.69 12 5.85"/>
  <g>
    <path class="cls-1" d="M15.6,5.83c.57.09,1.12.18,1.67.27.38.06.56.23.62.6.35,2.14.7,4.27,1.03,6.41.16,1.03-.14,1.95-.87,2.69-1.75,1.78-3.52,3.55-5.3,5.3-1.21,1.19-3.17,1.22-4.41.05-1.02-.97-2-1.98-3-2.98-.79-.78-1.57-1.57-2.36-2.36-1.32-1.33-1.33-3.33,0-4.66,1.71-1.71,3.42-3.43,5.13-5.13.82-.82,1.81-1.11,2.96-.92,1.01.17,2.03.33,3.04.5.17.03.22-.02.28-.17.71-1.86,2.02-3.05,4.01-3.37,1.5-.24,2.86.53,3.36,1.86.37.98.24,1.95-.16,2.89-.24.57-.59,1.06-1.02,1.5-.29.3-.67.34-.94.08-.27-.26-.26-.64.03-.94.55-.58.93-1.24,1.02-2.05.16-1.42-.84-2.36-2.27-2.08-1.38.27-2.29,1.14-2.83,2.41-.01.02,0,.05-.02.11ZM15.47,7.08c.04.39.17.65.45.98.26.3.26.67,0,.91-.27.25-.65.22-.93-.07-.47-.5-.73-1.09-.78-1.77-.02-.21-.1-.28-.3-.31-1.02-.16-2.04-.33-3.06-.49-.72-.12-1.34.08-1.86.6-1.68,1.69-3.37,3.37-5.06,5.06-.9.9-.9,2.09,0,2.99.74.73,1.47,1.47,2.21,2.21.98.98,1.96,1.97,2.94,2.94.84.83,2.05.82,2.88,0,1.71-1.71,3.41-3.41,5.12-5.12.49-.49.69-1.08.6-1.76-.05-.34-.11-.67-.16-1.01-.26-1.59-.51-3.18-.78-4.78-.01-.07-.08-.17-.13-.18-.37-.07-.75-.13-1.14-.19Z"/>
    <path class="cls-1" d="M12.83,10.35c.1-.12.18-.24.29-.35.26-.25.64-.24.88,0,.24.24.25.62,0,.88-.1.11-.23.19-.35.28.11.14.18.23.25.32.57.8.49,1.95-.19,2.64-.17.17-.36.25-.6.2-.44-.08-.65-.59-.4-.96.03-.05.07-.09.11-.13.29-.36.29-.8-.03-1.13-.28-.29-.56-.58-.85-.86-.35-.34-.88-.35-1.2-.02-.32.33-.32.83.03,1.18.27.28.55.55.82.83.81.81.86,2.07.11,2.9-.77.85-2.02.93-2.92.18-.03-.02-.06-.04-.14-.11-.09.11-.17.22-.27.32-.27.27-.66.27-.91.01-.24-.25-.23-.63.02-.9.09-.1.2-.18.31-.28-.07-.09-.12-.15-.17-.21-.64-.81-.58-2,.12-2.72.18-.19.4-.27.65-.2.23.06.38.22.43.45.05.21,0,.4-.14.57-.37.45-.35.85.05,1.26.26.26.52.52.78.78.35.35.87.36,1.2.03.33-.33.33-.83-.03-1.2-.28-.28-.57-.56-.84-.84-.62-.65-.8-1.42-.47-2.25.32-.82.97-1.25,1.85-1.31.52-.03.99.14,1.4.46.05.04.1.08.2.16Z"/>
  </g>
</svg>