<?xml version="1.0" encoding="UTF-8"?>
<svg id="Layer_1" data-name="Layer 1" xmlns="http://www.w3.org/2000/svg" viewBox="0 0 47.41 60.63">
  <defs>
    <style>
      .cls-1 {
        fill: #36352f;
        stroke-width: 0px;
      }
    </style>
  </defs>
  <path class="cls-1"
    d="M44.85,10.16c0-.08,0-.15-.01-.23.01-.1,0-.2-.01-.29-.01-.11-.03-.22-.06-.33-.03-.14-.06-.28-.1-.41-.03-.14-.08-.28-.13-.41-.03-.09-.06-.18-.11-.27-.63-1.47-1.98-2.65-3.53-3.01-.72-.17-1.45-.14-2.19-.14h-5.77c-6.3,0-12.59,0-18.89-.01h-6.6c-.51,0-1.01.05-1.49.18-2.19.61-3.66,2.4-3.83,4.61-.02.12-.02.24-.02.37-.01,7.29,0,14.58,0,21.87v21.91c0,.25,0,.5.03.76v.06c.01.06.02.12.03.18.01.08.02.17.04.25.07.36.19.7.34,1.04.65,1.44,1.98,2.61,3.52,2.96.72.16,1.45.13,2.18.13h5.78c6.3,0,12.6,0,18.89.01h6.6c.5,0,1-.05,1.49-.18,2.18-.61,3.64-2.37,3.83-4.58.01-.16.02-.32.02-.48V10.45c0-.1,0-.19-.01-.29ZM42.28,54.2c0,1.26-.83,2.31-2.02,2.56-.21.05-.43.04-.64.04h-6.81c-6.22,0-12.44-.01-18.66,0h-2.78c-1.37,0-2.76-.02-4.14,0-1.29.03-2.39-1.01-2.53-2.28-.01-.08-.01-.16-.01-.25V10.25c0-1.26.83-2.31,2.02-2.56.21-.04.43-.04.64-.04h6.82c4.93,0,9.86,0,14.79,0v15.82l4.92-2.55,4.22,2.55V7.66c.54,0,1.09,0,1.63-.02,1.38-.03,2.54,1.15,2.54,2.53,0,7.38,0,14.75,0,22.13v21.9Z" />
  <path class="cls-1"
    d="M26.38,38.14c-.33.05-.63.09-.92.12-.29.02-.57.04-.83.04-.64,0-1.17-.07-1.58-.2-.41-.13-.72-.3-.92-.5-.2-.2-.3-.41-.3-.62,0-.27.14-.54.42-.81.28-.27.68-.49,1.22-.67.53-.18,1.17-.27,1.9-.27h2.93v-4h-2.93c-.18,0-.36.01-.53.02v-.02c-.63,0-1.1-.04-1.43-.11-.33-.07-.54-.16-.65-.28-.11-.11-.16-.23-.16-.35,0-.26.17-.49.51-.69s.89-.3,1.66-.3c.31,0,.63.02.97.05.34.04.65.08.95.14l1.51-3.34c-.49-.28-1.03-.5-1.62-.64s-1.2-.21-1.8-.21c-.72,0-1.42.09-2.1.28s-1.27.46-1.79.83c-.52.37-.94.83-1.24,1.38-.31.55-.46,1.19-.46,1.93,0,.96.25,1.74.76,2.35.16.19.35.37.55.53-.11.09-.23.16-.33.25-.58.55-1.02,1.17-1.3,1.85-.29.68-.44,1.38-.44,2.09,0,.86.17,1.62.51,2.28.34.66.81,1.21,1.4,1.66.59.45,1.26.79,2.01,1.02.75.23,1.52.35,2.31.35.67,0,1.35-.09,2.02-.26.67-.17,1.31-.43,1.92-.77l-1.15-3.34c-.37.08-.71.15-1.04.2Z" />
</svg>