<?xml version="1.0" encoding="UTF-8"?>
<svg id="Layer_1" data-name="Layer 1" xmlns="http://www.w3.org/2000/svg" viewBox="0 0 49.81 61.77">
  <defs>
    <style>
      .cls-1 {
        fill: #36352f;
        stroke-width: 0px;
      }
    </style>
  </defs>
  <polygon class="cls-1" points="28.69 24.62 33.61 22.07 37.83 24.62 37.83 7.62 28.69 7.62 28.69 24.62" />
  <g>
    <path class="cls-1"
      d="M44.58,11.3c0-.08,0-.15-.01-.23.01-.1,0-.2-.01-.29-.01-.11-.03-.22-.06-.33-.03-.14-.06-.28-.1-.41-.03-.14-.08-.28-.13-.41-.03-.09-.06-.18-.11-.27-.63-1.47-1.98-2.65-3.53-3.01-.72-.17-1.45-.14-2.19-.14h-5.77c-6.3,0-12.59,0-18.89-.01h-6.6c-.51,0-1.01.05-1.49.18-2.19.61-3.66,2.4-3.83,4.61-.02.12-.02.24-.02.37-.01,7.29,0,14.58,0,21.87v21.91c0,.25,0,.5.03.76v.06c.01.06.02.12.03.18.01.08.02.17.04.25.07.36.19.7.34,1.04.65,1.44,1.98,2.61,3.52,2.96.72.16,1.45.13,2.18.13h5.78c6.3,0,12.6,0,18.89.01h6.6c.5,0,1-.05,1.49-.18,2.18-.61,3.64-2.37,3.83-4.58.01-.16.02-.32.02-.48V11.59c0-.1,0-.19-.01-.29ZM42.01,55.34c0,1.26-.83,2.31-2.02,2.56-.21.05-.43.04-.64.04h-6.81c-6.22,0-12.44-.01-18.66,0h-2.78c-1.37,0-2.76-.02-4.14,0-1.29.03-2.39-1.01-2.53-2.28-.01-.08-.01-.16-.01-.25V11.39c0-1.26.83-2.31,2.02-2.56.21-.04.43-.04.64-.04h6.82c6.22,0,12.43.01,18.64.01h2.78c1.38,0,2.77.01,4.14-.02,1.38-.03,2.54,1.15,2.54,2.53,0,7.38,0,14.75,0,22.13v21.9Z" />
    <polygon class="cls-1"
      points="11.05 37.52 15.29 37.52 15.29 35.09 11.05 35.09 11.05 33.92 15.87 33.92 15.87 31.38 7.74 31.38 7.74 41.38 16.06 41.38 16.06 38.84 11.05 38.84 11.05 37.52" />
    <polygon class="cls-1"
      points="23.94 35.93 20.13 31.38 17.36 31.38 17.36 41.38 20.65 41.38 20.65 36.83 24.45 41.38 27.23 41.38 27.23 31.38 23.94 31.38 23.94 35.93" />
    <path class="cls-1"
      d="M32.52,34.55c.21-.22.46-.39.76-.5s.64-.17,1.01-.17c.45,0,.86.09,1.22.28.37.19.71.46,1.02.82l2.16-1.9c-.51-.62-1.15-1.1-1.92-1.43-.78-.33-1.66-.5-2.65-.5-.83,0-1.59.13-2.28.38-.69.25-1.29.61-1.79,1.08-.51.47-.9,1.02-1.17,1.66s-.41,1.34-.41,2.12.14,1.48.41,2.12.67,1.19,1.17,1.66c.5.47,1.09.83,1.77,1.08s1.43.38,2.24.38c.73,0,1.49-.11,2.27-.33.78-.22,1.48-.53,2.09-.94v-4.23h-2.93v2.53s-.08.04-.11.05c-.36.13-.73.19-1.12.19s-.69-.06-.98-.18c-.29-.12-.54-.29-.75-.51-.21-.22-.37-.48-.49-.79s-.17-.65-.17-1.02c0-.39.06-.74.17-1.04.11-.3.28-.57.49-.79Z" />
  </g>
</svg>