<?xml version="1.0" encoding="UTF-8"?>
<svg id="Layer_1" data-name="Layer 1" xmlns="http://www.w3.org/2000/svg" viewBox="0 0 48.6 33.25">
  <defs>
    <style>
      .cls-1 {
        fill: #ff0;
      }

      .cls-1, .cls-2 {
        stroke-width: 0px;
      }

      .cls-2 {
        fill: #a7a9ac;
      }
    </style>
  </defs>
  <path class="cls-2" d="M39.15,15.53c.36-.16.71-.31,1.07-.47,1.53-.69,3.11-1.41,4.25-1.57.85-.12,1.07-.69,1.12-.92.19-.82-.46-1.28-1.09-1.71-.67-.46-1.78-1.23-1.84-2.06-.28-3.4-2.22-6.12-4.95-7.26-.92-.39-1.93-.6-3-.6-2.83,0-5.32,1.53-6.73,3.85.65.28,1.27.64,1.84,1.06,1.04-1.69,2.84-2.79,4.89-2.79,1.11,0,2.13.31,3,.88,1.58,1.01,2.66,2.83,2.84,5.04.11,1.28.95,2.22,1.77,2.9-.96.34-1.97.8-2.97,1.25-.55.25-1.1.5-1.64.72-.81.34-1.57.62-2.22.77.63.49,1.47,1.31,1.7,2.51.17.04.35.09.52.14,3.71,1.09,6.57,4.16,7.37,7.98h-8.15c.29.48.54.99.77,1.5.1.22.2.45.29.68h9.43c0-5.45-3.45-10.09-8.28-11.9Z"/>
  <path class="cls-2" d="M9.58,17.36c.17-.06.34-.11.52-.16.23-.97.92-1.83,2.06-2.58-.73-.17-1.64-.53-2.58-.93-.25-.11-.5-.22-.76-.33-1.17-.52-2.36-1.04-3.54-1.39.87-.72,1.7-1.72,1.75-3.03.08-2.01,1.07-3.76,2.54-4.81.94-.67,2.06-1.06,3.28-1.06,2.06,0,3.82,1.09,4.87,2.83.57-.42,1.19-.78,1.84-1.07-1.4-2.37-3.85-3.88-6.7-3.88-1.17,0-2.28.26-3.28.73-2.65,1.24-4.53,3.95-4.66,7.17-.04.97-1.44,1.85-2.18,2.32-.61.38-1.29.81-1.06,1.65.07.25.32.82,1.22.84,1.45.04,3.3.86,5.08,1.64.17.07.33.14.5.22C3.61,17.32.15,21.97.15,27.43h9.43c.29-.75.65-1.48,1.06-2.18H2.5c.78-3.73,3.52-6.73,7.08-7.9Z"/>
  <path class="cls-1" d="M28.23,21.04c.35-.15.71-.31,1.07-.47,1.53-.69,3.12-1.4,4.25-1.57.85-.12,1.07-.68,1.12-.92.19-.82-.46-1.27-1.08-1.71-.67-.46-1.78-1.23-1.85-2.06-.37-4.56-3.71-7.86-7.94-7.86s-7.76,3.47-7.95,7.9c-.04.97-1.44,1.85-2.18,2.32-.61.38-1.29.81-1.06,1.65.07.25.32.82,1.22.85,1.45.04,3.3.85,5.08,1.64.17.07.33.14.5.22-4.85,1.8-8.31,6.45-8.31,11.91h25.43c0-5.45-3.45-10.09-8.28-11.9Z"/>
</svg>