<?xml version="1.0" encoding="UTF-8"?>
<svg id="Layer_1" data-name="Layer 1" xmlns="http://www.w3.org/2000/svg" viewBox="0 0 51.03 32.61">
  <defs>
    <style>
      .cls-1 {
        fill: #ff0;
      }

      .cls-1, .cls-2 {
        stroke-width: 0px;
      }

      .cls-2 {
        fill: #a7a9ac;
      }
    </style>
  </defs>
  <path class="cls-1" d="M28.7,22.41c.28-.12.57-.25.86-.38,1.24-.56,2.51-1.13,3.42-1.26.68-.1.86-.55.91-.74.16-.66-.37-1.02-.87-1.38-.54-.37-1.43-.99-1.49-1.66-.3-3.67-2.99-6.34-6.4-6.34s-6.26,2.8-6.41,6.37c-.03.78-1.16,1.49-1.76,1.87-.49.31-1.04.66-.85,1.33.05.2.26.66.98.68,1.17.03,2.66.69,4.09,1.32.13.06.27.12.4.17-3.91,1.45-6.7,5.2-6.7,9.6h20.5c0-4.39-2.78-8.13-6.67-9.59Z"/>
  <path class="cls-2" d="M25.12,0c-2.86,0-5.27,1.92-6.1,4.61.55.19,1.07.43,1.56.73.55-2.11,2.37-3.63,4.54-3.63s3.91,1.48,4.5,3.65c.49-.3,1.02-.55,1.56-.74-.87-2.75-3.22-4.62-6.07-4.62Z"/>
  <path class="cls-2" d="M43.58,11.76c.28-.13.57-.25.86-.39,1.24-.56,2.51-1.13,3.42-1.26.68-.1.86-.55.91-.74.16-.66-.37-1.03-.88-1.38-.54-.37-1.43-.99-1.49-1.66-.3-3.67-2.99-6.34-6.41-6.34-2.69,0-4.99,1.71-5.94,4.16.61,0,1.21.08,1.77.21.79-1.59,2.36-2.66,4.17-2.66,2.5,0,4.48,2.01,4.7,4.77.09,1.04.77,1.79,1.43,2.34-.78.27-1.59.64-2.39,1-.56.26-1.14.52-1.68.73.13.47.23.97.29,1.48.18.16.49.37.63.47.38.26,1.11.77,1.52,1.6,1.94,1.21,3.37,3.19,3.85,5.5h-5.08c.47.55.89,1.14,1.25,1.76h5.72c0-4.39-2.78-8.14-6.67-9.59Z"/>
  <path class="cls-2" d="M18.76,15.66s-.07.08-.11.12l.22.05c-.03-.06-.07-.11-.11-.17ZM10.25,0C6.81,0,3.99,2.8,3.84,6.37c-.03.78-1.16,1.49-1.76,1.87-.49.31-1.04.66-.85,1.33.05.2.26.66.98.68,1.17.03,2.66.69,4.09,1.32.13.06.27.12.4.17-3.91,1.45-6.7,5.2-6.7,9.61h5.71c.37-.62.79-1.21,1.25-1.76H1.89c.47-2.22,1.8-4.13,3.62-5.35.3-.56.81-1.08,1.54-1.54.16-.1.6-.38.83-.58.04-.56.14-1.1.28-1.62-.38-.16-.78-.33-1.17-.51-.94-.41-1.91-.84-2.85-1.12.7-.58,1.37-1.38,1.41-2.45.11-2.65,2.17-4.74,4.7-4.74,1.81,0,3.34,1.05,4.14,2.68.57-.14,1.16-.22,1.77-.23-.98-2.5-3.22-4.16-5.91-4.16Z"/>
  <path class="cls-2" d="M37.51,17.97c.29-.13.57-.25.86-.38,1.24-.56,2.51-1.13,3.42-1.26.68-.1.86-.55.91-.74.15-.66-.37-1.03-.88-1.38-.54-.37-1.43-.99-1.49-1.66-.3-3.67-2.99-6.34-6.41-6.34-2.28,0-4.29,1.23-5.43,3.1.53.23,1.02.52,1.48.85.84-1.36,2.29-2.25,3.94-2.25,2.5,0,4.48,2.01,4.7,4.77.09,1.04.76,1.79,1.43,2.34-.77.27-1.59.64-2.39,1-1.11.5-2.24,1.01-3.11,1.2.51.39,1.19,1.05,1.37,2.03,3.19.77,5.68,3.33,6.36,6.55h-6.57c.33.56.61,1.15.85,1.76h7.6c0-4.39-2.78-8.14-6.68-9.59Z"/>
  <path class="cls-2" d="M16.31,6.2c-3.44,0-6.26,2.8-6.41,6.37-.03.78-1.16,1.49-1.76,1.87-.49.31-1.04.66-.85,1.33.05.2.26.66.98.68,1.17.03,2.66.69,4.09,1.32.13.06.27.12.4.17-3.91,1.45-6.7,5.2-6.7,9.6h7.6c.24-.61.52-1.2.85-1.76h-6.56c.66-3.15,3.05-5.66,6.13-6.49.19-.78.74-1.48,1.66-2.08-.75-.17-1.73-.6-2.69-1.02-.94-.42-1.91-.84-2.85-1.12.7-.58,1.37-1.38,1.41-2.45.11-2.65,2.17-4.74,4.7-4.74,1.66,0,3.08.88,3.92,2.28.46-.34.96-.63,1.48-.86-1.13-1.91-3.11-3.13-5.4-3.13Z"/>
</svg>