<?xml version="1.0" encoding="UTF-8"?>
<svg id="Layer_1" data-name="Layer 1" xmlns="http://www.w3.org/2000/svg" viewBox="0 0 47.43 33.54">
  <defs>
    <style>
      .cls-1 {
        fill: #ff0;
      }

      .cls-1, .cls-2 {
        stroke-width: 0px;
      }

      .cls-2 {
        fill: #a7a9ac;
      }
    </style>
  </defs>
  <path class="cls-2" d="M38.77,16.39c.32-.14.64-.28.96-.43,1.38-.62,2.79-1.26,3.81-1.41.76-.11.96-.62,1.01-.82.17-.74-.41-1.14-.98-1.54-.6-.41-1.6-1.1-1.65-1.84-.25-3.05-1.99-5.48-4.44-6.51-.82-.35-1.73-.54-2.69-.54-2.54,0-4.77,1.37-6.03,3.45.59.25,1.14.57,1.65.95.93-1.51,2.55-2.5,4.38-2.5.99,0,1.91.28,2.69.79,1.41.91,2.38,2.54,2.54,4.52.09,1.15.85,1.99,1.59,2.6-.86.3-1.77.71-2.66,1.12-.49.22-.99.44-1.47.65-.72.3-1.41.56-1.99.69.57.44,1.32,1.17,1.53,2.25.16.04.31.08.46.13,3.32.98,5.89,3.73,6.61,7.16h-8.82c.26.43.49.89.69,1.35.09.2.18.4.26.61h9.98c0-4.89-3.1-9.05-7.42-10.67Z"/>
  <path class="cls-2" d="M8.45,18.03c.15-.05.31-.1.47-.14.21-.87.82-1.64,1.84-2.31-.66-.15-1.47-.47-2.31-.84-.22-.09-.45-.2-.68-.3-1.05-.46-2.12-.93-3.17-1.25.78-.65,1.52-1.54,1.57-2.72.08-1.8.96-3.37,2.28-4.32.84-.6,1.85-.95,2.94-.95,1.84,0,3.43.98,4.36,2.53.51-.38,1.07-.7,1.65-.96-1.26-2.13-3.45-3.48-6.01-3.48-1.05,0-2.05.24-2.94.66-2.38,1.11-4.06,3.55-4.18,6.43-.03.87-1.29,1.66-1.96,2.08-.54.34-1.16.73-.95,1.48.06.22.28.73,1.09.76,1.3.04,2.96.77,4.55,1.47.15.06.3.13.44.19-4.35,1.61-7.46,5.78-7.46,10.68h9.59c.26-.68.58-1.33.95-1.95H2.11c.7-3.34,3.15-6.03,6.35-7.08Z"/>
  <path class="cls-1" d="M19.15,21.32c-.15-.06-.3-.13-.44-.19-1.6-.7-3.25-1.43-4.55-1.47-.81-.03-1.03-.54-1.09-.76-.21-.75.41-1.14.95-1.48.67-.43,1.92-1.21,1.96-2.08.1-2.36,1.24-4.42,2.96-5.7,1.17-.88,2.61-1.39,4.17-1.39s2.97.5,4.13,1.36c1.67,1.25,2.8,3.27,2.99,5.68.06.74,1.06,1.43,1.66,1.84.56.39,1.15.79.97,1.53-.05.21-.25.71-1.01.82-1.01.15-2.43.79-3.81,1.41-.32.14-.64.29-.96.43,4.33,1.62,7.42,5.79,7.42,10.67H11.7c0-4.9,3.11-9.07,7.46-10.68Z"/>
  <path class="cls-1" d="M28.43,2.46c-.39,1.84-.79,3.7-1.2,5.63-1.16-.87-2.58-1.36-4.13-1.36s-3,.51-4.17,1.39c-.54-1.88-.83-3.83-1.31-5.7-.91-.65-1.14-1.33-.67-1.96.4-.54,1.13-.62,1.63-.18.58.51.51,1.21-.21,1.99.35.86.84,1.65,1.49,2.33.17.17.36.33.57.46.75.46,1.41.29,1.82-.48.36-.68.49-1.42.55-2.19-.19-.16-.38-.3-.54-.47-.41-.46-.38-1.19.06-1.61.41-.4,1.13-.41,1.55-.03.47.44.51,1.2.06,1.67-.16.17-.38.29-.6.45.02.71.16,1.42.47,2.09.4.87,1.13,1.09,1.91.52.43-.31.8-.73,1.11-1.15.36-.49.64-1.05.93-1.56-.68-.98-.68-1.65-.04-2.1.5-.35,1.23-.22,1.57.29.44.67.16,1.33-.85,1.97Z"/>
</svg>