<?xml version="1.0" encoding="UTF-8"?>
<svg id="Layer_1" data-name="Layer 1" xmlns="http://www.w3.org/2000/svg" viewBox="0 0 42.63 15.39">
  <defs>
    <style>
      .cls-1 {
        fill: #ffde00;
        stroke-width: 0px;
      }
    </style>
  </defs>
  <path class="cls-1"
    d="M39.32,4.4c0,.15-.03.28-.1.41h0s-.04.08-.04.08h0s-.23.41-.23.41l-1.1,1.95-.64,1.13-.64-1.13-.37-.66.72-1.28.72-1.28h0s.07-.12.07-.12c.15-.23.41-.38.7-.39h.05c.47.02.85.41.85.9Z" />
  <path class="cls-1"
    d="M25,4.4c0,.14-.03.27-.08.38h0s-.07.13-.07.13h0s-.22.38-.22.38l-1.1,1.95-.94,1.67-1.18,2.09-.53.93-.23.41-.04.06c-.12.2-.32.35-.56.4h-.38c-.22-.05-.4-.18-.53-.35h0s-.09-.16-.09-.16h0s-.2-.36-.2-.36l-.53-.93-1.18-2.09-.19-.33-.18.33-1.18,2.09-.5.89-.17.31-.17.3c-.16.19-.4.31-.66.31-.3,0-.57-.16-.73-.4h0s-.06-.11-.06-.11h0s-.23-.41-.23-.41l-.5-.89-1.18-2.09s-.27-.44-.27-.75c0-.5.39-.9.88-.9.27,0,.51.12.67.32h0s.15.27.15.27h0s.59,1.06.59,1.06l.67,1.18.67-1.18.94-1.67.26-.45.84-1.49.17-.3.84-1.49h2.94c.47.01.86.41.86.9,0,.46-.34.84-.78.89h-2l-.84,1.49.26.45.94,1.67.69,1.22.69-1.22.94-1.67,1.1-1.95.75-1.32.02-.04c.15-.25.41-.42.72-.43h.06c.47.01.86.41.86.9Z" />
  <path class="cls-1"
    d="M36.2,10.17l-.47.83-.54.95-.17.3h0s-.1.19-.1.19h0c-.15.2-.37.34-.63.36-.02,0-.05,0-.07,0-.48,0-.88-.4-.88-.9,0-.19.06-.37.16-.51h0s.22-.39.22-.39l.47-.84v-.02s-.7-1.23-.7-1.23l-.32-.57-.62-1.1-1.1-1.95-.24-.42-.03-.05h0c-.07-.13-.1-.27-.1-.43,0-.49.38-.89.86-.9h.05c.26,0,.49.13.65.32l.16.28.67,1.19.71,1.26.38.68.63,1.11v.02s.31.54.31.54l.71,1.26Z" />
  <path class="cls-1"
    d="M31.19,9.57l-.8,1.43-.21.37-.81,1.44h-1.96c-.45-.04-.81-.43-.81-.9s.36-.87.82-.9h2.56l-1.18-2.09-.92-1.64.02-.03h-.03l.02.03-.92,1.64-1.18,2.09-.71,1.27-.1.17c-.15.21-.39.35-.67.37h-.09c-.47-.02-.84-.42-.84-.9,0-.13.03-.25.07-.36l.1-.18h0s.21-.37.21-.37l1.18-2.09.94-1.67.99-1.76.29-.51h0c.16-.24.42-.39.72-.39s.54.14.7.36h0s.31.55.31.55l1,1.76.94,1.67.37.66Z" />
  <g>
    <path class="cls-1"
      d="M9.86,8.13c0,.13-.03.25-.07.36l-.09.17-.14.24-.53.94c-.33-.46-.82-.79-1.39-.89-.04,0-2.98-.05-2.98-.05-.19-.02-.37-.06-.53-.13h0c-.66-.25-1.17-.82-1.35-1.52-.03-.12-.06-.25-.07-.39v-.4c.02-.22.07-.43.15-.63,0,0,0,0,0,0,0,0,0,0,0,.01.19.48.53.87.96,1.12,0,0,0,0,0,0,.28.16.59.26.92.28.05,0,.1,0,.15,0s.1,0,.15,0h4.13c.39.09.69.45.69.88Z" />
    <path class="cls-1"
      d="M13.25,3.5s-3.76-.03-3.84-.03h-4.6c-.07,0-.14,0-.21.03-.14.04-.27.11-.38.2,0,0-.01.01-.02.02-.17.16-.27.4-.27.65,0,.09.01.17.03.25,0,0,0,0,0,.01,0,.03.02.07.03.1l.1.18h0s.09.15.09.15h0s.12.21.12.21v.02s.27.46.27.46c.29-.23.64-.4,1.03-.46.05,0,.11-.01.16-.02.06,0,.11,0,.17,0s.11,0,.17,0h.46l3,.02h3.76c.44-.05.78-.43.78-.89,0-.49-.38-.89-.86-.9Z" />
    <path class="cls-1"
      d="M8.08,10.86s0,0-.01,0h-.04s-1.16.16-1.16.16c0,0-.02,0-.03,0-.48,0-.88.4-.88.9,0,.35.19.65.47.8.13.07.27.12.43.12.32,0,.6-.17.75-.43h0s.63-1.12.63-1.12h0s.04-.06.04-.06c.02-.03.03-.07.03-.11,0-.13-.1-.24-.23-.24Z" />
  </g>
</svg>