<?xml version="1.0" encoding="UTF-8"?>
<svg id="Layer_1" data-name="Layer 1" xmlns="http://www.w3.org/2000/svg" viewBox="0 0 65.18 97.01">
  <defs>
    <style>
      .cls-1 {
        fill: #ff0;
        stroke-width: 0px;
      }
    </style>
  </defs>
  <path class="cls-1" d="M61.16,40.02c-.35-.68-4.2-8.01-9.6-12.83-5.81-5.2-11.16-5.86-20.41-2.55-.12.04-.23.08-.34.12,1.36-1.46,2.18-3.41,2.18-5.55,0-4.53-3.73-8.22-8.31-8.22s-8.31,3.69-8.31,8.22,3.53,8.02,7.94,8.22c-4.84,2.31-8.36,4.94-12.39,9.03-5.74,5.82-5.91,16.52-5.91,17.73,0,1.91,1.81,2.67,2.79,2.81.09.02.18.03.27.04,2.12,1.9,6.39,2.38,10.09,2.38,1.2,0,2.34-.05,3.33-.12-2.25,7.06-7.17,17.18-8.73,20.32-.2.4-.41.78-.64,1.18-.6,1.02-1.51,3.03-.92,4.92.35,1.14,1.17,2.02,2.43,2.63.87.42,1.73.62,2.56.62,1.97,0,3.73-1.17,4.96-3.39h0c1.96-2.71,8.09-18.67,11.05-26.52l.82,25.06c.06,1.71.88,3.27,2.21,4.19.88.61,1.89.92,3.02.92.07,0,.14,0,.21,0,1.74-.06,3.11-.88,3.97-2.36.5-.87.75-1.9.74-2.98-.04-2.99-.29-17.48-1.04-29,6.44-2.27,12.88-5.49,15.6-8.94.84.02,1.63-.3,2.27-.95,1.59-1.59.85-3.84.15-4.95ZM17.33,40.98c1.49-1.82,3.03-3.08,3.93-3.74.47,1.18.86,3.13,1.17,5.5-3.16,1.22-6.05,2.6-8.41,4.05.71-2.04,1.81-3.98,3.31-5.81ZM38.74,29.28c3.1-.43,6.6,1.42,10.42,5.52.79.85,1.54,1.75,2.24,2.63-3.03-.23-6.64-.03-10.45.5-.86-4.17-1.75-7.19-2.21-8.66ZM12.13,55.79c.71-.87.97-1.94.97-2.37,0-.02,0-.03,0-.05-.05-.94-.02-1.87.07-2.78.7-.55,1.56-1.13,2.59-1.75,1.99-1.19,4.35-2.33,6.97-3.38.31,3.29.5,7.05.56,10.62,0,.17,0,.33-.03.48-5.68.49-9.24-.01-11.13-.78ZM42.95,52.12s0-.05,0-.07c-.33-4.28-.88-8.17-1.49-11.5,3.12-.43,6.04-.6,8.59-.51,1.38.05,2.53.17,3.49.35,1.22,1.8,2.09,3.29,2.46,3.95.08.14.17.27.27.4-1.9,2.05-6.18,4.81-13.31,7.39Z"/>
  <path class="cls-1" d="M40.37,19.41c.03.31-.02,1.06-.99,1.54-1.29.64-2.91,2.11-4.49,3.54-.37.33-.73.67-1.1.99.01,0,.02,0,.03,0-1.85.15-3.71.52-5.56,1.12s-3.55,1.39-5.14,2.36c.02-.02.03-.03.05-.04-.23-.02-.45-.04-.68-.07-2.44-.25-4.98-.5-6.74.02-1.09.32-1.61-.27-1.79-.54-.6-.91.05-1.7.63-2.39.71-.86,2.05-2.46,1.71-3.64-1.51-5.4,1.32-10.93,6.45-12.6s10.39,1.01,12.61,6.34c.4.96,2.04,1.45,3.02,1.75.92.28,1.88.56,1.97,1.63Z"/>
</svg>