<?xml version="1.0" encoding="UTF-8"?>
<svg id="Layer_1" data-name="Layer 1" xmlns="http://www.w3.org/2000/svg" viewBox="0 0 92.46 96.13">
  <defs>
    <style>
      .cls-1 {
        fill: #ff0;
        stroke-width: 0px;
      }
    </style>
  </defs>
  <path class="cls-1" d="M77.44,78.57c-.14-.15-.34-.24-.55-.24l-31.92-.2c.55-.42.9-.93,1.11-1.39.26-.57.37-1.24.32-2-.17-2.51,1.45-10.86,2.62-16.55,1.49,3.26,4.42,5.8,8.6,7.43,3.92,1.53,7.53,1.72,7.68,1.73h.04c1.57,0,4.63-.85,4.95-4.05.14-1.4-.2-3.87-4.01-4.8-.04-.01-.08-.02-.09-.02l-.1-.03c-4.68-.89-8.08-2.88-10.1-5.92-1.21-1.81-1.54-3.49-1.63-4.09,1.21-1.44,1.85-3,1.96-3.28.55-1.41.85-6.11.41-10.6-.42-4.26-1.65-9.85-5.07-12.34-3-2.18-6.12-2.48-8.33-.81-1.71,1.3-2.42,3.5-1.73,5.34.36.97.92,2.41,1.39,3.62-.79,2.1-2,3.6-3.6,4.45-3.06,1.64-6.66.45-6.7.43-.07-.02-.15-.04-.22-.05-1.01-.12-3.06.16-3.6,2.1-.14.52-.19,1.02-.13,1.48.14,1.13,1.01,2.08,2.16,2.36l.16.04c1.1.27,2.59.63,4.46.63,1.78,0,3.92-.33,6.41-1.38.81-.34,1.54-.78,2.2-1.28-.02.26-.04.47-.06.62-.69,3.75-.4,6.77.86,8.98-.13.03-.26.06-.4.1-1.05.32-1.95,1.01-2.53,1.96-3.18,5.21-4.24,18.97-4.49,23.07-.06,1.06.18,2.07.71,2.92.32.51.7.94,1.13,1.28l-21.19-.13,5.93-31.93,8.4,1.81c.2.04.41,0,.58-.11.17-.11.29-.29.33-.49l.81-3.82c.09-.41-.17-.82-.59-.91l-16.33-3.6c-.2-.04-.41,0-.58.1-.17.11-.29.28-.34.48l-.77,3.52c-.09.41.16.81.57.91l.5.12-6.67,33.88h-2.41c-.41,0-.74.32-.77.72l-.55,8.95c-.01.21.06.42.21.57.15.15.35.24.56.24h0l69.42-.07c.41,0,.75-.32.77-.73l.44-8.51c.01-.21-.06-.41-.21-.57Z"/>
  <path class="cls-1" d="M55.44,16.66c.02.25-.01.86-.79,1.24-1.03.51-2.34,1.7-3.6,2.85-.3.27-.59.54-.88.79,0,0,.02,0,.03,0-1.49.12-2.98.42-4.46.9s-2.85,1.12-4.12,1.89c.01-.01.02-.03.04-.04-.18-.02-.36-.04-.55-.05-1.96-.2-3.99-.4-5.41.01-.88.25-1.3-.22-1.44-.44-.48-.73.04-1.37.5-1.93.57-.69,1.64-1.98,1.37-2.93-1.22-4.34,1.05-8.79,5.17-10.13,4.08-1.33,8.34.82,10.13,5.1.32.77,1.64,1.17,2.43,1.41.74.22,1.51.45,1.58,1.31Z"/>
</svg>