<?xml version="1.0" encoding="UTF-8"?>
<svg id="Layer_1" data-name="Layer 1" xmlns="http://www.w3.org/2000/svg" viewBox="0 0 97.01 110.65">
  <defs>
    <style>
      .cls-1 {
        fill: #404041;
        stroke-width: 0px;
      }
    </style>
  </defs>
  <g>
    <path class="cls-1" d="M47.03,44.94v18.22c1.08-.08,2.13-.16,3.19-.25,1.87-.16,3.75-.32,5.62-.47.83-.07,1.67-.17,2.5-.18,2.37-.02,4.51,1.43,5.31,3.67,1.93,5.36,3.84,10.72,5.72,16.09,1.07,3.05-1.04,6.1-4.27,6.26-1.97.1-3.88-1.17-4.57-3.08-.92-2.53-1.81-5.07-2.72-7.6-.74-2.07-1.48-4.15-2.23-6.26-1.81.72-3.59,1.42-5.37,2.14-2.47.98-4.91,2.03-7.41,2.93-1.99.72-4.05.9-6.07.06-2.61-1.08-4.2-3.03-4.68-5.82-.12-.68-.11-1.39-.11-2.08,0-7.87,0-15.74,0-23.62,0-3.78,2.76-6.94,6.5-7.45.41-.06.83-.09,1.25-.09,10.58,0,21.15,0,31.73,0,2.19,0,3.88,1.65,3.88,3.8,0,2.09-1.71,3.74-3.88,3.74-7.91,0-15.81,0-23.72,0-.21,0-.41,0-.65,0Z"/>
    <path class="cls-1" d="M42.76,80.34c-.21,1.21-.39,2.34-.62,3.46-.2.96-.35,1.96-.71,2.87-.53,1.35-1.57,2.27-2.88,2.88-5.3,2.43-10.6,4.87-15.91,7.29-.55.25-1.1.52-1.68.69-2.26.66-4.66-.48-5.58-2.6-.95-2.2-.22-4.72,1.86-5.9,1.28-.73,2.65-1.29,3.99-1.9,3.47-1.6,6.95-3.18,10.41-4.79.2-.09.34-.45.38-.71.18-.99.32-1.99.47-2.99,0-.05.05-.09.1-.18,1.46,1.03,3.03,1.79,4.8,2.13,1.78.34,3.53.2,5.37-.22Z"/>
    <path class="cls-1" d="M58.47,97.24c1.21-5.13,5.6-7.7,9.64-7.54,3.75.15,7.77,2.65,8.9,7.52.2.02.41.02.61.06.99.2,1.54,1,1.44,2.1-.08.93-.82,1.63-1.78,1.63-6.35,0-12.7,0-19.06,0-1.06,0-1.78-.76-1.81-1.83-.02-1.08.66-1.85,1.71-1.93.1,0,.21,0,.35,0Z"/>
  </g>
  <path class="cls-1" d="M53.2,31.62c.03.32-.02,1.11-1.03,1.6-1.34.66-3.02,2.2-4.65,3.68-.38.35-.76.69-1.14,1.03.01,0,.02,0,.04,0-1.92.16-3.85.54-5.77,1.16s-3.69,1.45-5.33,2.45c.02-.02.03-.03.05-.05-.24-.02-.47-.05-.71-.07-2.54-.26-5.16-.52-6.99.02-1.13.33-1.68-.29-1.86-.57-.62-.95.05-1.77.65-2.49.74-.9,2.12-2.56,1.78-3.79-1.58-5.61,1.36-11.37,6.69-13.1,5.28-1.72,10.78,1.06,13.1,6.6.42,1,2.12,1.51,3.14,1.82.96.29,1.96.59,2.05,1.69Z"/>
</svg>